HIERARCHY
ROOT Hips
{
	OFFSET 0.00000 0.00000 0.00000
	CHANNELS 6 Xposition Yposition Zposition Zrotation Yrotation Xrotation 
	JOINT LHipJoint
	{
		OFFSET 0 0 0
		CHANNELS 3 Zrotation Yrotation Xrotation
		JOINT LeftHip
		{
			OFFSET 1.37959 -1.78713 0.86582
			CHANNELS 3 Zrotation Yrotation Xrotation
			JOINT LeftKnee
			{
				OFFSET 2.54611 -6.99539 0.00000
				CHANNELS 3 Zrotation Yrotation Xrotation
				JOINT LeftAnkle
				{
					OFFSET 2.59951 -7.14211 0.00000
					CHANNELS 3 Zrotation Yrotation Xrotation
					JOINT LeftToe
					{
						OFFSET 0.18493 -0.50810 1.96120
						CHANNELS 3 Zrotation Yrotation Xrotation
						End Site
						{
							OFFSET 0.00000 -0.00000 1.02054
						}
					}
				}
			}
		}
	}
	JOINT RHipJoint
	{
		OFFSET 0 0 0
		CHANNELS 3 Zrotation Yrotation Xrotation
		JOINT RightHip
		{
			OFFSET -1.33564 -1.78713 0.86582
			CHANNELS 3 Zrotation Yrotation Xrotation
			JOINT RightKnee
			{
				OFFSET -2.52705 -6.94302 0.00000
				CHANNELS 3 Zrotation Yrotation Xrotation
				JOINT RightAnkle
				{
					OFFSET -2.55964 -7.03257 0.00000
					CHANNELS 3 Zrotation Yrotation Xrotation
					JOINT RightToe
					{
						OFFSET -0.25804 -0.70896 2.12109
						CHANNELS 3 Zrotation Yrotation Xrotation
						End Site
						{
							OFFSET -0.00000 -0.00000 1.11821
						}
					}
				}
			}
		}
	}
	JOINT lowerback
	{
		OFFSET 0 0 0
		CHANNELS 3 Zrotation Yrotation Xrotation
		JOINT Chest
		{
			OFFSET -0.02031 2.24248 -0.18900
			CHANNELS 3 Zrotation Yrotation Xrotation
			JOINT Chest2
			{
				OFFSET 0.08342 2.24689 -0.03799
				CHANNELS 3 Zrotation Yrotation Xrotation
				JOINT lowerneck
				{
					OFFSET 0 0 0
					CHANNELS 3 Zrotation Yrotation Xrotation
					JOINT Neck
					{
						OFFSET -0.11607 1.55844 0.24628
						CHANNELS 3 Zrotation Yrotation Xrotation
						JOINT Head
						{
							OFFSET 0.06877 1.60174 -0.17013
							CHANNELS 3 Zrotation Yrotation Xrotation
							End Site
							{
								OFFSET 0.03358 1.61266 -0.08543
							}
						}
					}
				}
				JOINT LeftCollar
				{
					OFFSET 0 0 0
					CHANNELS 3 Zrotation Yrotation Xrotation
					JOINT LeftShoulder
					{
						OFFSET 3.47537 0.55866 -0.72348
CHANNELS 3 Zrotation Xrotation Yrotation
						JOINT LeftElbow
						{
OFFSET 0 -5.381540 0.000000
CHANNELS 3 Zrotation Xrotation Yrotation
							JOINT LeftWrist
							{
OFFSET 0 -3.333120 0.000000
CHANNELS 3 Zrotation Xrotation Yrotation
								JOINT lhand
								{
									OFFSET 0 0 0
CHANNELS 3 Zrotation Xrotation Yrotation
									JOINT LFingers
									{
OFFSET 0 -0.710790 0.000000
CHANNELS 3 Zrotation Xrotation Yrotation
										End Site
										{
OFFSET 0 -0.573060 0.000000
										}
									}
								}
								JOINT LThumb
								{
OFFSET 0 0.000000 0.000000
CHANNELS 3 Zrotation Xrotation Yrotation
									End Site
									{
OFFSET 0 -0.581810 0.581810
									}
								}
							}
						}
					}
				}
				JOINT RightCollar
				{
					OFFSET 0 0 0
					CHANNELS 3 Zrotation Yrotation Xrotation
					JOINT RightShoulder
					{
						OFFSET -3.27844 0.90739 -0.35708
CHANNELS 3 Zrotation Xrotation Yrotation
						JOINT RightElbow
						{
OFFSET 0 -5.169540 0.000000
CHANNELS 3 Zrotation Xrotation Yrotation
							JOINT RightWrist
							{
OFFSET 0 -3.382870 0.000000
CHANNELS 3 Zrotation Xrotation Yrotation
								JOINT rhand
								{
									OFFSET 0 0 0
CHANNELS 3 Zrotation Xrotation Yrotation
									JOINT RFingers
									{
OFFSET 0 -0.817970 0.000000
CHANNELS 3 Zrotation Xrotation Yrotation
										End Site
										{
OFFSET 0 -0.659470 0.000000
										}
									}
								}
								JOINT RThumb
								{
OFFSET 0 0.000000 0.000000
CHANNELS 3 Zrotation Xrotation Yrotation
									End Site
									{
OFFSET 0 -0.669530 0.669530
									}
								}
							}
						}
					}
				}
			}
		}
	}
}
MOTION
Frames: 13
Frame Time: .0083333
2.2433 17.7942 9.4892 -1.4937 1.0382 -2.1826 0.0000 0.0000 0.0000 -15.0227 -4.5207 -17.0654 2.4177 9.6867 27.9680 0.1208 -6.9945 -7.3825 0.1188 -2.2221 -6.1199 0.0000 0.0000 0.0000 20.1427 -2.4908 -0.6103 -6.5300 -14.9230 47.0736 0.3226 -10.2253 -1.5233 -0.1312 -2.3347 6.4316 -1.4245 4.0434 2.2605 -1.4458 5.3457 0.5912 -0.8345 2.6733 -0.6485 -2.0801 16.8208 -11.0877 -5.8152 24.1519 13.0199 0.6169 11.1623 6.2518 0.0000 -0.0000 0.0000 7.0982 -34.2399 -13.9533 45.0034 -50.7702 22.2414 -9.0682 -40.5792 -32.425 0.0 0.0 0.0 -7.1250 0.0 0.0 -44.2761 56.6319 14.5833 0.0000 -0.0000 0.0000 -57.869 -3.0804 -28.6428 -101.3826 -59.5047 -69.8412 -10.0679 -43.907 -31.8324 0.0 0.0 0.0 7.1250 0.0 -0.0 12.2041 -1.6132 12.8344
2.2973 17.8079 9.6240 -0.2333 1.3600 -2.4010 0.0000 0.0000 0.0000 -16.8657 -4.1644 -16.1348 2.3201 9.5031 27.3822 0.1387 -6.9243 -7.6719 0.0002 0.0948 0.2605 0.0000 0.0000 0.0000 18.2326 -3.1815 -1.7776 -7.1099 -15.4237 49.2886 0.3369 -10.7178 -0.5077 -0.3321 -3.7036 10.2442 -2.5787 3.8986 2.1596 -1.7188 5.1327 0.7790 -0.4558 2.5650 -0.4759 -2.1712 16.7555 -11.4431 -5.5952 24.1343 13.6523 0.7525 11.1180 6.4742 -0.0000 0.0000 0.0000 6.8828 -34.142 -14.5216 44.3243 -50.4331 21.7166 -8.0462 -39.4784 -33.1389 0.0 0.0 0.0 -7.1250 0.0 0.0 -44.0706 57.3829 15.3396 -0.0000 0.0000 0.0000 -57.5246 -3.4656 -27.4851 -100.8179 -59.5531 -69.3545 -10.24 -43.3475 -31.2761 0.0 0.0 0.0 7.1250 0.0 -0.0 12.0699 -1.0923 12.5782
2.3293 17.8233 9.7353 -0.6928 1.2694 -2.4533 0.0000 0.0000 0.0000 -16.5515 -3.6375 -15.6975 2.2476 9.3638 26.9401 0.1244 -6.8648 -7.3927 0.0041 -0.4148 -1.1399 0.0000 0.0000 0.0000 18.7505 -2.8829 -3.0604 -7.6660 -15.8680 51.3505 0.4269 -12.0111 -0.6741 -0.4187 -4.1532 11.5081 -2.2304 3.8392 2.1784 -1.4474 5.0618 0.7776 -0.3705 2.5297 -0.4817 -2.4372 16.6364 -11.7237 -5.3743 24.0704 14.2947 0.8962 11.0461 6.6683 -0.0000 0.0000 0.0000 6.522 -33.8159 -15.0936 43.9343 -50.2356 21.4164 -7.3698 -38.4175 -33.5038 0.0 0.0 0.0 -7.1250 0.0 0.0 -43.8312 57.8028 15.6972 -0.0000 0.0000 0.0000 -57.4059 -3.9894 -26.3419 -99.8372 -59.6312 -68.5087 -10.4112 -43.0286 -31.2129 0.0 0.0 0.0 7.1250 0.0 -0.0 11.9688 -1.0537 12.46
2.3612 17.8543 9.8525 -0.8262 1.1628 -2.4886 0.0000 0.0000 0.0000 -16.5582 -3.4539 -14.9574 2.1945 9.2599 26.6119 0.1421 -6.6825 -7.6355 0.0169 -0.8384 -2.3042 0.0000 0.0000 0.0000 18.8840 -2.7287 -4.3060 -8.1887 -16.2563 53.2396 0.4985 -12.7576 -1.4797 -0.2985 -3.5132 9.7110 -2.1771 3.7798 2.2170 -1.3044 4.9822 0.7362 -0.2567 2.4905 -0.5531 -2.4623 16.6115 -11.9841 -5.1790 24.0908 14.8656 1.0105 11.0279 6.8687 -0.0000 0.0000 0.0000 6.2112 -33.2989 -15.6479 43.7759 -50.1545 21.2947 -6.8847 -37.4327 -34.2581 0.0 0.0 0.0 -7.1250 0.0 0.0 -44.1818 58.4719 16.5988 -0.0000 0.0000 0.0000 -57.1768 -4.6075 -25.2428 -98.3614 -59.7342 -67.2348 -10.2632 -42.6064 -31.5541 0.0 0.0 0.0 7.1250 0.0 -0.0 12.0754 -1.3675 12.6417
2.4045 17.8796 9.9861 -0.6516 1.3614 -2.5952 0.0000 0.0000 0.0000 -17.0256 -3.6033 -13.9828 2.1513 9.1743 26.3422 0.1820 -6.4763 -8.2532 0.0003 -0.1048 -0.2879 0.0000 0.0000 0.0000 18.4138 -3.2822 -5.4246 -8.6615 -16.5849 54.9119 0.5176 -12.8129 -2.3978 -0.2133 -2.9736 8.2053 -2.3070 3.6453 2.1683 -1.2728 4.8014 0.7112 -0.1452 2.4002 -0.5627 -2.1255 16.5868 -11.4508 -5.6511 24.0285 14.5466 0.7752 11.0097 6.7779 -0.0000 -0.0000 0.0000 5.9399 -32.775 -16.2712 43.6328 -50.0808 21.1849 -6.2703 -36.4408 -35.1543 0.0 0.0 0.0 -7.1250 0.0 0.0 -44.5995 59.2739 17.685 -0.0000 -0.0000 0.0000 -56.7928 -4.9102 -23.9715 -96.8095 -59.8241 -65.8937 -10.3481 -42.0584 -31.1551 0.0 0.0 0.0 7.1250 0.0 -0.0 12.0008 -0.9885 12.4812
2.4423 17.8912 10.1162 -0.6261 1.5854 -2.7562 0.0000 0.0000 0.0000 -17.3067 -3.7494 -13.0786 2.0913 9.0537 25.9635 0.1933 -6.2002 -8.3569 0.0024 0.3173 0.8717 0.0000 0.0000 0.0000 18.1735 -3.7240 -6.4884 -9.1033 -16.8737 56.4466 0.5548 -13.1055 -3.6998 -0.2718 -3.3534 9.2643 -2.4098 3.4532 2.0000 -1.1495 4.5535 0.8633 0.0621 2.2735 -0.3270 -1.9823 16.5379 -10.9669 -6.3201 23.9577 13.8925 0.4932 10.9811 6.5901 0.0000 -0.0000 0.0000 5.7823 -32.6051 -16.6812 43.4190 -49.97 21.021 -5.6212 -35.6195 -35.3549 0.0 0.0 0.0 -7.1250 0.0 0.0 -44.2285 59.5736 17.8244 0.0000 -0.0000 0.0000 -56.4599 -5.4048 -22.7604 -95.2963 -59.8937 -64.5851 -10.8689 -41.6609 -30.6421 0.0 0.0 0.0 7.1250 0.0 -0.0 11.6708 -0.5564 12.0351
2.4725 17.9070 10.2365 -0.4089 1.5624 -3.1165 0.0000 0.0000 0.0000 -17.7499 -3.7110 -11.9955 2.0280 8.9241 25.5581 0.2114 -5.8377 -8.5613 0.0028 0.3436 0.9442 0.0000 0.0000 0.0000 17.8311 -3.7838 -7.3380 -9.5174 -17.1294 57.8628 0.5982 -13.5522 -5.3177 -0.4030 -4.0754 11.2889 -2.7535 3.3474 1.9916 -1.0629 4.4157 1.2195 0.3581 2.1978 0.0131 -2.0029 16.5734 -11.2493 -6.5599 24.0680 13.9030 0.4687 11.0001 6.6729 0.0000 0.0000 0.0000 5.6508 -32.729 -17.107 43.0994 -49.8027 20.7766 -4.8478 -34.8758 -35.2114 0.0 0.0 0.0 -7.1250 0.0 0.0 -43.3524 59.6495 17.4642 0.0000 0.0000 0.0000 -56.2132 -6.1404 -21.9037 -93.7988 -59.9454 -63.2893 -11.2016 -41.3642 -30.343 0.0 0.0 0.0 7.1250 0.0 -0.0 11.4607 -0.3083 11.7594
2.5109 17.9257 10.3518 -0.3880 1.3547 -3.3207 0.0000 0.0000 0.0000 -18.0078 -3.6783 -11.0201 1.9628 8.7881 25.1348 0.2487 -5.2706 -9.0557 0.0002 -0.0960 -0.2638 0.0000 0.0000 0.0000 17.6631 -3.6778 -8.3647 -9.8983 -17.3523 59.1479 0.5979 -13.6235 -6.6112 -0.4517 -4.3118 11.9555 -2.7345 3.3972 2.3125 -0.9756 4.4688 1.1660 0.4120 2.2271 -0.2279 -2.1794 16.5294 -11.6209 -6.1099 24.0647 14.6057 0.6808 10.9727 6.8826 -0.0000 -0.0000 0.0000 5.2886 -32.3208 -17.9919 42.8510 -49.6712 20.5871 -4.0401 -34.1618 -35.0326 0.0 0.0 0.0 -7.1250 0.0 0.0 -42.4019 59.7061 17.0493 -0.0000 -0.0000 0.0000 -55.8396 -6.202 -20.8321 -92.6528 -59.9734 -62.2972 -11.418 -41.0467 -29.7207 0.0 0.0 0.0 7.1250 0.0 -0.0 11.2950 0.2742 11.4662
2.5481 17.9380 10.4676 -1.0320 1.1581 -3.2167 0.0000 0.0000 0.0000 -17.4948 -3.6982 -10.4263 1.8955 8.6448 24.6905 0.2774 -4.7707 -9.4449 0.0034 -0.3750 -1.0304 0.0000 0.0000 0.0000 18.2910 -3.5339 -9.7176 -10.2463 -17.5460 60.3083 0.5836 -13.5320 -7.1384 -0.4617 -4.3588 12.0884 -2.0082 3.4609 2.4310 -0.7484 4.5623 0.9417 0.2228 2.2789 -0.4892 -2.5467 16.3640 -12.1510 -5.4101 23.8994 15.4267 0.9871 10.8700 7.1004 -0.0000 0.0000 0.0000 4.8999 -31.762 -18.9942 42.9281 -49.7121 20.6459 -3.5844 -33.8776 -34.6972 0.0 0.0 0.0 -7.1250 0.0 0.0 -41.6068 59.5595 16.5083 -0.0000 0.0000 0.0000 -55.3866 -5.9099 -19.7108 -91.7956 -59.9878 -61.5549 -11.3837 -40.8154 -29.2429 0.0 0.0 0.0 7.1250 0.0 -0.0 11.2841 0.7495 11.359
2.5831 17.9506 10.5874 -0.9841 1.1577 -3.1458 0.0000 0.0000 0.0000 -17.7438 -3.7411 -9.8275 1.8511 8.5488 24.3939 0.3130 -4.5285 -9.9809 0.0006 -0.1520 -0.4177 0.0000 0.0000 0.0000 18.1316 -3.5374 -10.9866 -10.5609 -17.7134 61.3470 0.5746 -13.4537 -7.2633 -0.4872 -4.4758 12.4192 -1.9599 3.4493 2.2712 -0.7655 4.5533 0.9937 0.1920 2.2733 -0.3413 -2.4318 16.2678 -12.4772 -5.5543 23.8130 15.5784 0.9659 10.7978 7.2362 0.0000 -0.0000 0.0000 4.8063 -31.5248 -19.7959 43.2621 -49.8881 20.901 -3.7551 -34.2543 -34.7221 0.0 0.0 0.0 -7.1250 0.0 0.0 -41.7937 59.5386 16.578 0.0000 -0.0000 0.0000 -54.9307 -5.8892 -18.8852 -90.7420 -59.9979 -60.6426 -10.9715 -40.4724 -29.0513 0.0 0.0 0.0 7.1250 0.0 -0.0 11.5116 0.9932 11.5471
2.6211 17.9615 10.7038 -0.0756 1.2579 -3.1021 0.0000 0.0000 0.0000 -18.9776 -3.8145 -9.1701 1.8103 8.4593 24.1179 0.3457 -4.3111 -10.4644 0.0007 0.1724 0.4738 0.0000 0.0000 0.0000 16.9101 -3.5631 -12.2527 -10.8516 -17.8617 62.2986 0.5525 -13.2747 -7.6202 -0.5298 -4.6642 12.9532 -2.8290 3.3837 2.3144 -0.9986 4.4435 0.9567 0.4330 2.2180 -0.4483 -1.9816 16.3277 -12.6640 -5.9596 23.9352 15.7611 0.8480 10.8185 7.4370 0.0000 -0.0000 0.0000 4.6823 -31.0203 -20.4188 43.6928 -50.1118 21.2309 -4.2799 -34.725 -34.896 0.0 0.0 0.0 -7.1250 0.0 0.0 -42.4741 59.547 16.92 0.0000 -0.0000 0.0000 -54.3995 -5.8975 -17.9191 -89.8896 -60.0 -59.9044 -10.892 -40.2631 -29.0357 0.0 0.0 0.0 7.1250 0.0 -0.0 11.5569 1.019 11.5891
2.6548 17.9615 10.8077 0.1873 1.2066 -3.0107 0.0000 0.0000 0.0000 -19.4317 -3.7844 -8.6224 1.7521 8.3293 23.7189 0.3611 -4.1246 -10.6869 0.0114 0.6906 1.8980 0.0000 0.0000 0.0000 16.5049 -3.4037 -13.5782 -11.0992 -17.9833 63.1033 0.5339 -13.1286 -7.9080 -0.5341 -4.6830 13.0065 -3.0536 3.4025 2.5860 -1.0671 4.4463 0.7640 0.4614 2.2245 -0.8093 -1.7544 16.2564 -12.7505 -6.0815 23.8572 15.9713 0.8015 10.7633 7.5626 0.0000 0.0000 0.0000 4.3454 -30.4766 -21.1751 44.0906 -50.3151 21.5366 -4.6574 -34.8535 -34.6345 0.0 0.0 0.0 -7.1250 0.0 0.0 -42.5384 59.2625 16.6549 0.0000 0.0000 0.0000 -53.7489 -5.5784 -16.9513 -89.8128 -59.9999 -59.8379 -11.3686 -40.4552 -29.1628 0.0 0.0 0.0 7.1250 0.0 -0.0 11.2878 0.8304 11.3465
2.6924 17.9603 10.9180 0.6134 1.2878 -2.9416 0.0000 0.0000 0.0000 -20.1024 -3.7613 -8.0621 1.7077 8.2287 23.4109 0.3800 -4.0420 -10.9611 0.0009 0.1897 0.5212 0.0000 0.0000 0.0000 15.8524 -3.5103 -14.7950 -11.2848 -18.0716 63.7029 0.4978 -12.7477 -7.9450 -0.4201 -4.1599 11.5270 -3.2952 3.4381 2.5621 -1.2241 4.4876 0.7813 0.4353 2.2448 -0.7853 -1.7439 16.0570 -12.4842 -6.2559 23.5503 15.5858 0.6742 10.6367 7.4078 -0.0000 -0.0000 0.0000 4.0348 -30.4084 -22.0026 44.3695 -50.4558 21.7515 -4.7731 -34.8415 -34.3569 0.0 0.0 0.0 -7.1250 0.0 0.0 -42.3457 59.0266 16.3154 -0.0000 -0.0000 0.0000 -53.1422 -5.2347 -16.2351 -89.8236 -59.9999 -59.8472 -12.4309 -41.0911 -29.8936 0.0 0.0 0.0 7.1250 0.0 -0.0 10.7230 -0.0387 10.9232
